<svg xmlns="http://www.w3.org/2000/svg" version="1.1" xmlns:xlink="http://www.w3.org/1999/xlink" xmlns:svgjs="http://svgjs.dev/svgjs" width="1500" height="1500" viewBox="0 0 1500 1500"><rect width="1500" height="1500" fill="#000000"></rect><g transform="matrix(0.6666666666666666,0,0,0.6666666666666666,249.39393939393938,438.5856950067477)"><svg viewBox="0 0 396 247" data-background-color="#ffffff" preserveAspectRatio="xMidYMid meet" height="935" width="1500" xmlns="http://www.w3.org/2000/svg" xmlns:xlink="http://www.w3.org/1999/xlink"><g id="tight-bounds" transform="matrix(1,0,0,1,0.2400000000000091,-0.09999999999999432)"><svg viewBox="0 0 395.52 247.2" height="247.2" width="395.52"><g><svg></svg></g><g><svg viewBox="0 0 395.52 247.2" height="247.2" width="395.52"><g transform="matrix(1,0,0,1,127.45689909371937,47.215199999999996)"><svg viewBox="0 0 140.60620181256124 152.7696" height="152.7696" width="140.60620181256124"><g><svg viewBox="0 0 197.3731290336 214.44725470507473" height="152.7696" width="140.60620181256124"><g><svg viewBox="0 0 197.3731290336 214.44725470507473" height="214.44725470507473" width="197.3731290336"><g id="textblocktransform"><svg viewBox="0 0 197.3731290336 214.44725470507473" height="214.44725470507473" width="197.3731290336" id="textblock"><g><svg viewBox="0 0 197.3731290336 151.825483872" height="151.825483872" width="197.3731290336"><g transform="matrix(1,0,0,1,0,0)"><svg width="197.3731290336" viewBox="1.7999999999999998 -28 36.400000000000006 28" height="151.825483872" data-palette-color="#000000"><path d="M18.2-26Q18.2-24.85 18-24L18-24Q18.2-23.2 18.2-22L18.2-22Q18.2-20.85 18-20L18-20 16-20Q16.2-19.2 16.2-18L16.2-18Q16.2-16.85 16-16L16-16 14-16Q14.2-15.2 14.2-14L14.2-14Q14.2-12.85 14-12L14-12 12-12Q12.2-11.2 12.2-10L12.2-10Q12.2-8.85 12-8L12-8Q12.2-7.2 12.2-6L12.2-6Q12.2-4.85 12-4L12-4Q12.2-3.2 12.2-2L12.2-2Q12.2-0.85 12 0L12 0 8 0Q7.8-0.85 7.8-2L7.8-2Q7.8-3.2 8-4L8-4Q7.8-4.85 7.8-6L7.8-6Q7.8-7.2 8-8L8-8Q7.8-8.85 7.8-10L7.8-10Q7.8-11.2 8-12L8-12 6-12Q5.8-12.85 5.8-14L5.8-14Q5.8-15.2 6-16L6-16 4-16Q3.8-16.85 3.8-18L3.8-18Q3.8-19.2 4-20L4-20 2-20Q1.8-20.85 1.8-22L1.8-22Q1.8-23.2 2-24L2-24Q1.8-24.85 1.8-26L1.8-26Q1.8-27.2 2-28L2-28 6-28Q6.2-27.2 6.2-26L6.2-26Q6.2-24.85 6-24L6-24Q6.2-23.2 6.2-22L6.2-22Q6.2-20.85 6-20L6-20 8-20Q8.2-19.2 8.2-18L8.2-18Q8.2-16.85 8-16L8-16 12-16Q11.8-16.85 11.8-18L11.8-18Q11.8-19.2 12-20L12-20 14-20Q13.8-20.85 13.8-22L13.8-22Q13.8-23.2 14-24L14-24Q13.8-24.85 13.8-26L13.8-26Q13.8-27.2 14-28L14-28 18-28Q18.2-27.2 18.2-26L18.2-26ZM38-16Q38.2-15.2 38.2-14L38.2-14Q38.2-12.85 38-12L38-12Q38.2-11.2 38.2-10L38.2-10Q38.2-8.85 38-8L38-8Q38.2-7.2 38.2-6L38.2-6Q38.2-4.85 38-4L38-4 36-4Q36.2-3.2 36.2-2L36.2-2Q36.2-0.85 36 0L36 0 26 0Q25.8-0.85 25.8-2L25.8-2Q25.8-3.2 26-4L26-4 24-4Q23.8-4.85 23.8-6L23.8-6Q23.8-7.2 24-8L24-8 22-8Q21.8-8.85 21.8-10L21.8-10Q21.8-11.2 22-12L22-12Q21.8-12.85 21.8-14L21.8-14Q21.8-15.2 22-16L22-16Q21.8-16.85 21.8-18L21.8-18Q21.8-19.2 22-20L22-20 24-20Q23.8-20.85 23.8-22L23.8-22Q23.8-23.2 24-24L24-24 26-24Q25.8-24.85 25.8-26L25.8-26Q25.8-27.2 26-28L26-28 36-28Q36.2-27.2 36.2-26L36.2-26Q36.2-24.85 36-24L36-24 38-24Q38.2-23.2 38.2-22L38.2-22Q38.2-20.85 38-20L38-20 34-20Q33.8-20.85 33.8-22L33.8-22Q33.8-23.2 34-24L34-24 28-24Q28.2-23.2 28.2-22L28.2-22Q28.2-20.85 28-20L28-20 26-20Q26.2-19.2 26.2-18L26.2-18Q26.2-16.85 26-16L26-16Q26.2-15.2 26.2-14L26.2-14Q26.2-12.85 26-12L26-12Q26.2-11.2 26.2-10L26.2-10Q26.2-8.85 26-8L26-8 28-8Q28.2-7.2 28.2-6L28.2-6Q28.2-4.85 28-4L28-4 34-4Q33.8-4.85 33.8-6L33.8-6Q33.8-7.2 34-8L34-8Q33.8-8.85 33.8-10L33.8-10Q33.8-11.2 34-12L34-12 31-12Q30.8-12.85 30.8-14L30.8-14Q30.8-15.2 31-16L31-16 38-16Z" opacity="1" transform="matrix(1,0,0,1,0,0)" fill="#ffffff" class="wordmark-text-0" data-fill-palette-color="primary" id="text-0"></path></svg></g></svg></g><g transform="matrix(1,0,0,1,0,187.66783680256628)"><svg viewBox="0 0 133.1281755331632 26.779417902508435" height="26.779417902508435" width="133.1281755331632"><g transform="matrix(1,0,0,1,0,0)"><svg width="133.1281755331632" viewBox="-0.25 -39.65 251.02 50.5" height="26.779417902508435" data-palette-color="#000000"><path d="M17.85-34.55L24.35-34.55 15.25-13.15 15.25 0 8.85 0 8.85-13.1-0.25-34.55 6.5-34.55 12.15-18.3 17.85-34.55ZM36.35-27.15Q41.35-27.15 44.12-23.65 46.9-20.15 46.9-13.25L46.9-13.25Q46.9-6.65 44.1-2.95 41.3 0.75 36.35 0.75L36.35 0.75Q31.4 0.75 28.6-2.88 25.8-6.5 25.8-13.25L25.8-13.25Q25.8-19.95 28.6-23.55 31.4-27.15 36.35-27.15L36.35-27.15ZM36.35-22.5Q34.2-22.5 33.2-20.38 32.2-18.25 32.2-13.25L32.2-13.25Q32.2-8.2 33.2-6.08 34.2-3.95 36.35-3.95L36.35-3.95Q38.5-3.95 39.5-6.08 40.5-8.2 40.5-13.25L40.5-13.25Q40.5-18.3 39.5-20.4 38.5-22.5 36.35-22.5L36.35-22.5ZM69.39-29.85L70.94-25.1Q69.89-24.6 68.42-24.4 66.94-24.2 64.75-24.2L64.75-24.2Q66.84-23.2 67.87-21.53 68.89-19.85 68.89-17.4L68.89-17.4Q68.89-13.4 66.44-10.95 63.99-8.5 59.8-8.5L59.8-8.5Q58.55-8.5 57.24-8.9L57.24-8.9Q56.34-8.15 56.34-6.85L56.34-6.85Q56.34-5.85 56.89-5.35 57.45-4.85 58.95-4.85L58.95-4.85 61.74-4.85Q65.75-4.85 68.09-2.78 70.44-0.7 70.44 2.5L70.44 2.5Q70.44 6.3 67.52 8.58 64.59 10.85 59.2 10.85L59.2 10.85Q53.49 10.85 51.22 8.75 48.95 6.65 48.95 2.6L48.95 2.6 54.39 2.6Q54.39 4.75 55.39 5.65 56.39 6.55 59.24 6.55L59.24 6.55Q61.99 6.55 63.14 5.6 64.3 4.65 64.3 2.9L64.3 2.9Q64.3 1.2 63.34 0.4 62.39-0.4 60.39-0.4L60.39-0.4 58.49-0.4Q54.7-0.4 52.95-1.75 51.2-3.1 51.2-5.45L51.2-5.45Q51.2-6.8 51.92-8.03 52.64-9.25 53.89-10.2L53.89-10.2Q51.84-11.5 50.89-13.3 49.95-15.1 49.95-17.7L49.95-17.7Q49.95-22.05 52.55-24.58 55.14-27.1 59.55-27.1L59.55-27.1Q62.8-27.1 64.92-27.8 67.05-28.5 69.39-29.85L69.39-29.85ZM59.55-23Q57.8-23 56.89-21.75 55.99-20.5 55.99-17.8L55.99-17.8Q55.99-15.25 56.89-13.88 57.8-12.5 59.49-12.5L59.49-12.5Q61.24-12.5 62.09-13.73 62.95-14.95 62.95-17.85L62.95-17.85Q62.95-20.55 62.12-21.78 61.3-23 59.55-23L59.55-23ZM73.69-26.45L79.84-26.45 79.84 0 73.69 0 73.69-26.45ZM76.74-39.65Q78.39-39.65 79.42-38.6 80.44-37.55 80.44-35.9L80.44-35.9Q80.44-34.3 79.42-33.25 78.39-32.2 76.74-32.2L76.74-32.2Q75.09-32.2 74.07-33.25 73.04-34.3 73.04-35.9L73.04-35.9Q73.04-37.55 74.07-38.6 75.09-39.65 76.74-39.65L76.74-39.65ZM117.14-34.55L117.14 0 109.04 0 100.29-28.3Q100.69-24.7 100.91-21.68 101.14-18.65 101.14-14.5L101.14-14.5 101.14 0 95.54 0 95.54-34.55 103.59-34.55 112.34-6.25Q112.04-8.05 111.76-11.35 111.49-14.65 111.49-18.05L111.49-18.05 111.49-34.55 117.14-34.55ZM141.13-26.45L141.13 0 135.78 0 135.48-3.35Q134.23-1.3 132.69-0.28 131.13 0.75 129.08 0.75L129.08 0.75Q126.18 0.75 124.51-1.3 122.83-3.35 122.83-6.65L122.83-6.65 122.83-26.45 128.98-26.45 128.98-7Q128.98-3.9 131.08-3.9L131.08-3.9Q132.28-3.9 133.23-4.83 134.19-5.75 134.98-7.45L134.98-7.45 134.98-26.45 141.13-26.45ZM164.78-29.85L166.33-25.1Q165.28-24.6 163.81-24.4 162.33-24.2 160.13-24.2L160.13-24.2Q162.23-23.2 163.26-21.53 164.28-19.85 164.28-17.4L164.28-17.4Q164.28-13.4 161.83-10.95 159.38-8.5 155.18-8.5L155.18-8.5Q153.93-8.5 152.63-8.9L152.63-8.9Q151.73-8.15 151.73-6.85L151.73-6.85Q151.73-5.85 152.28-5.35 152.83-4.85 154.33-4.85L154.33-4.85 157.13-4.85Q161.13-4.85 163.48-2.78 165.83-0.7 165.83 2.5L165.83 2.5Q165.83 6.3 162.91 8.58 159.98 10.85 154.58 10.85L154.58 10.85Q148.88 10.85 146.61 8.75 144.33 6.65 144.33 2.6L144.33 2.6 149.78 2.6Q149.78 4.75 150.78 5.65 151.78 6.55 154.63 6.55L154.63 6.55Q157.38 6.55 158.53 5.6 159.68 4.65 159.68 2.9L159.68 2.9Q159.68 1.2 158.73 0.4 157.78-0.4 155.78-0.4L155.78-0.4 153.88-0.4Q150.08-0.4 148.33-1.75 146.58-3.1 146.58-5.45L146.58-5.45Q146.58-6.8 147.31-8.03 148.03-9.25 149.28-10.2L149.28-10.2Q147.23-11.5 146.28-13.3 145.33-15.1 145.33-17.7L145.33-17.7Q145.33-22.05 147.93-24.58 150.53-27.1 154.93-27.1L154.93-27.1Q158.18-27.1 160.31-27.8 162.43-28.5 164.78-29.85L164.78-29.85ZM154.93-23Q153.18-23 152.28-21.75 151.38-20.5 151.38-17.8L151.38-17.8Q151.38-15.25 152.28-13.88 153.18-12.5 154.88-12.5L154.88-12.5Q156.63-12.5 157.48-13.73 158.33-14.95 158.33-17.85L158.33-17.85Q158.33-20.55 157.51-21.78 156.68-23 154.93-23L154.93-23ZM180.73-27.1Q181.88-27.1 182.78-26.75L182.78-26.75 181.78-20.85Q180.78-21.1 179.93-21.1L179.93-21.1Q178.03-21.1 176.93-19.45 175.83-17.8 175.23-14.55L175.23-14.55 175.23 0 169.08 0 169.08-26.45 174.43-26.45 174.88-21.85Q176.73-27.1 180.73-27.1L180.73-27.1ZM202.53-6.4Q202.53-5.1 202.88-4.48 203.23-3.85 204.03-3.45L204.03-3.45 202.78 0.65Q200.73 0.4 199.5-0.45 198.28-1.3 197.68-3.05L197.68-3.05Q195.38 0.75 191.23 0.75L191.23 0.75Q187.93 0.75 185.98-1.48 184.03-3.7 184.03-7.4L184.03-7.4Q184.03-11.7 186.7-13.95 189.38-16.2 194.48-16.2L194.48-16.2 196.53-16.2 196.53-18.05Q196.53-20.55 195.65-21.58 194.78-22.6 192.83-22.6L192.83-22.6Q190.48-22.6 186.98-21.3L186.98-21.3 185.58-25.3Q187.58-26.2 189.73-26.68 191.88-27.15 193.83-27.15L193.83-27.15Q202.53-27.15 202.53-18.35L202.53-18.35 202.53-6.4ZM192.88-3.7Q195.28-3.7 196.53-7L196.53-7 196.53-12.55 195.08-12.55Q192.53-12.55 191.35-11.4 190.18-10.25 190.18-7.85L190.18-7.85Q190.18-5.8 190.88-4.75 191.58-3.7 192.88-3.7L192.88-3.7ZM220.68-27.15Q223.53-27.15 225.18-25.1 226.83-23.05 226.83-19.6L226.83-19.6 226.83 0 220.68 0 220.68-18.9Q220.68-20.8 220.15-21.63 219.63-22.45 218.63-22.45L218.63-22.45Q216.53-22.45 214.48-18.5L214.48-18.5 214.48 0 208.33 0 208.33-37 214.48-37.65 214.48-23.3Q215.73-25.25 217.2-26.2 218.68-27.15 220.68-27.15L220.68-27.15ZM249.27-6.4Q249.27-5.1 249.62-4.48 249.97-3.85 250.77-3.45L250.77-3.45 249.52 0.65Q247.47 0.4 246.25-0.45 245.02-1.3 244.42-3.05L244.42-3.05Q242.12 0.75 237.97 0.75L237.97 0.75Q234.67 0.75 232.72-1.48 230.77-3.7 230.77-7.4L230.77-7.4Q230.77-11.7 233.45-13.95 236.12-16.2 241.22-16.2L241.22-16.2 243.27-16.2 243.27-18.05Q243.27-20.55 242.4-21.58 241.52-22.6 239.57-22.6L239.57-22.6Q237.22-22.6 233.72-21.3L233.72-21.3 232.32-25.3Q234.32-26.2 236.47-26.68 238.62-27.15 240.57-27.15L240.57-27.15Q249.27-27.15 249.27-18.35L249.27-18.35 249.27-6.4ZM239.62-3.7Q242.02-3.7 243.27-7L243.27-7 243.27-12.55 241.82-12.55Q239.27-12.55 238.1-11.4 236.92-10.25 236.92-7.85L236.92-7.85Q236.92-5.8 237.62-4.75 238.32-3.7 239.62-3.7L239.62-3.7Z" opacity="1" transform="matrix(1,0,0,1,0,0)" fill="#ffffff" class="slogan-text-1" data-fill-palette-color="secondary" id="text-1"></path></svg></g></svg></g></svg></g></svg></g></svg></g></svg></g><path d="M305.735 41.215L305.735 0 58.535 0 58.535 247.2 305.735 247.2 305.735 205.985 295.981 205.985 295.981 237.446 68.289 237.446 68.289 9.754 295.981 9.754 295.981 41.215Z" fill="#ffffff" stroke="transparent" data-fill-palette-color="tertiary"></path></svg></g><defs></defs></svg><rect width="395.52" height="247.2" fill="none" stroke="none" visibility="hidden"></rect></g></svg></g></svg>