<?xml version="1.0" standalone="no"?>
<!DOCTYPE svg PUBLIC "-//W3C//DTD SVG 20010904//EN"
 "http://www.w3.org/TR/2001/REC-SVG-20010904/DTD/svg10.dtd">
<svg version="1.0" xmlns="http://www.w3.org/2000/svg"
 width="689.000000pt" height="689.000000pt" viewBox="0 0 689.000000 689.000000"
 preserveAspectRatio="xMidYMid meet">
<metadata>
Created by potrace 1.14, written by Peter Selinger 2001-2017
</metadata>
<g transform="translate(0.000000,689.000000) scale(0.100000,-0.100000)"
fill="#000000" stroke="none">
<path d="M300 3465 l0 -3115 3115 0 3115 0 0 520 0 520 -120 0 -120 0 -2 -397
-3 -398 -2870 0 -2870 0 0 2870 0 2870 2870 0 2870 0 3 -397 2 -398 120 0 120
0 0 520 0 520 -3115 0 -3115 0 0 -3115z"/>
<path d="M2044 5324 c-3 -37 -4 -121 0 -188 3 -67 6 -125 6 -131 0 -5 -3 -75
-6 -155 -3 -80 -1 -165 3 -190 l9 -45 97 -3 97 -3 -7 -42 c-10 -55 -10 -261 0
-309 l8 -38 93 0 93 0 -4 -152 c-3 -84 -1 -171 4 -193 l9 -40 97 -3 97 -3 -8
-47 c-4 -26 -6 -90 -6 -142 2 -159 2 -284 0 -795 0 -60 3 -127 7 -147 l8 -38
194 0 194 0 8 38 c4 20 8 91 7 157 -1 131 -2 215 -1 388 0 61 0 150 0 197 0
47 0 137 1 200 0 63 -2 132 -6 152 l-7 37 97 3 96 3 9 35 c5 19 7 106 5 193
l-4 157 93 0 92 0 8 38 c10 46 10 276 1 320 l-7 32 94 0 c64 0 96 4 102 13 9
14 16 638 7 715 l-5 52 -199 0 -199 0 -5 -52 c-4 -29 -5 -205 -4 -391 l3 -337
-92 0 c-93 0 -93 0 -100 -27 -10 -37 -10 -267 0 -320 l7 -43 -195 0 -194 0 7
33 c9 43 9 295 -1 330 l-7 27 -96 0 -96 0 7 48 c4 26 6 101 5 167 -3 144 -3
196 -1 363 2 70 0 144 -4 165 l-7 37 -198 0 -198 0 -8 -66z"/>
<path d="M4384 5334 c-3 -31 -5 -118 -2 -195 l4 -139 -93 0 c-93 0 -93 0 -100
-27 -10 -36 -10 -254 -1 -315 l8 -48 -99 0 -100 0 -5 -52 c-9 -81 -2 -1091 7
-1105 6 -9 38 -13 102 -13 l95 0 -8 -32 c-9 -44 -9 -274 1 -320 l8 -38 92 0
92 0 0 -177 c0 -98 3 -186 7 -195 7 -17 40 -18 492 -18 l485 0 8 48 c10 59 10
232 1 294 l-8 47 97 3 97 3 9 45 c4 25 6 110 3 190 -4 80 -5 161 -4 180 4 47
4 296 0 340 -1 19 0 89 4 156 4 67 3 151 0 188 l-8 66 -343 0 -344 0 -8 -37
c-10 -50 -10 -246 0 -305 l8 -48 145 0 146 0 -7 -42 c-4 -24 -6 -99 -5 -168 4
-160 4 -198 0 -350 -1 -69 1 -146 5 -172 l7 -48 -291 0 -291 0 7 43 c10 53 10
283 0 320 -7 27 -7 27 -100 27 l-92 0 0 585 0 585 92 0 92 0 8 38 c9 48 10
243 1 305 l-8 47 291 0 291 0 -7 -40 c-9 -55 -10 -233 0 -297 l7 -53 193 0
c135 0 196 3 201 11 11 18 18 238 10 313 l-8 66 -99 0 -99 0 8 48 c9 63 9 257
-1 305 l-8 37 -489 0 -489 0 -7 -56z"/>
<path d="M2744 2006 c-10 -25 0 -51 20 -54 27 -6 48 25 35 49 -12 22 -47 25
-55 5z"/>
<path d="M4024 1987 c-2 -7 -3 -87 -2 -177 l3 -165 28 -3 27 -3 0 86 c0 94 10
125 40 125 19 0 20 -7 20 -105 l0 -105 30 0 30 0 0 108 c0 81 -4 113 -16 130
-18 26 -50 28 -82 6 l-22 -15 0 65 c0 64 -1 66 -25 66 -14 0 -28 -6 -31 -13z"/>
<path d="M2040 1968 c0 -2 17 -42 37 -88 28 -64 38 -104 42 -160 6 -73 7 -75
34 -78 27 -3 27 -3 27 55 0 45 8 78 36 143 60 141 58 130 23 130 -16 0 -32 -6
-34 -12 -2 -7 -15 -42 -28 -78 l-24 -65 -25 75 c-23 71 -26 75 -56 78 -18 2
-32 2 -32 0z"/>
<path d="M2950 1805 l0 -165 25 0 24 0 3 121 3 122 36 -119 35 -119 40 0 39 0
3 163 2 162 -30 0 -30 0 -1 -112 -1 -113 -36 113 -35 112 -39 0 -38 0 0 -165z"/>
<path d="M2665 1910 c-11 -5 -37 -9 -58 -9 -53 -1 -87 -37 -87 -90 0 -23 7
-46 16 -56 13 -12 14 -19 5 -28 -15 -15 -14 -50 1 -65 7 -7 23 -12 38 -12 53
0 71 -11 68 -39 -3 -22 -8 -26 -41 -29 -32 -3 -39 0 -44 17 -7 29 -53 29 -53
1 0 -35 35 -60 85 -60 86 0 133 47 106 106 -12 27 -47 44 -92 44 -44 0 -37 26
9 34 63 10 95 66 67 118 -12 25 -12 28 6 33 11 4 19 14 17 23 -4 19 -17 23
-43 12z m-31 -66 c24 -62 -29 -118 -56 -59 -8 19 -8 31 0 50 13 28 47 34 56 9z"/>
<path d="M3575 1910 c-11 -5 -37 -9 -57 -9 -73 -2 -112 -68 -79 -134 10 -21
15 -40 10 -43 -13 -8 -11 -48 3 -62 7 -7 25 -12 41 -12 38 0 67 -17 67 -39 0
-35 -72 -44 -90 -11 -16 29 -50 26 -50 -4 0 -75 177 -74 196 0 14 53 -28 94
-97 94 -21 0 -29 5 -29 18 0 13 9 17 37 18 25 0 42 8 55 23 20 26 24 91 7 108
-8 8 -5 13 11 18 12 4 20 13 18 23 -4 19 -17 23 -43 12z m-32 -71 c13 -21 1
-68 -20 -76 -19 -7 -43 21 -43 52 0 42 42 58 63 24z"/>
<path d="M2337 1889 c-29 -17 -47 -65 -47 -128 0 -52 4 -65 28 -91 42 -48 114
-44 144 7 37 65 29 161 -17 201 -28 23 -77 29 -108 11z m83 -118 c0 -76 -16
-104 -48 -84 -24 15 -29 134 -7 157 12 12 21 13 36 6 16 -9 19 -22 19 -79z"/>
<path d="M3722 1878 c-19 -19 -22 -20 -22 -5 0 11 -8 17 -25 17 l-25 0 0 -125
0 -125 30 0 30 0 0 74 c0 88 12 126 39 126 19 0 31 18 31 46 0 21 -33 17 -58
-8z"/>
<path d="M3827 1893 c-33 -9 -15 -38 23 -38 42 0 60 -10 60 -34 0 -13 -10 -21
-34 -25 -55 -11 -81 -37 -81 -85 0 -24 7 -47 16 -56 21 -21 76 -22 96 -2 15
15 17 15 28 0 18 -24 49 -9 41 20 -3 12 -6 57 -6 100 0 69 -3 81 -25 102 -24
25 -68 31 -118 18z m81 -170 c-3 -33 -6 -38 -28 -38 -18 0 -26 6 -28 23 -4 28
14 52 40 52 16 0 19 -6 16 -37z"/>
<path d="M4278 1893 c-10 -2 -18 -14 -18 -25 0 -18 4 -19 39 -13 33 5 41 3 50
-14 18 -32 13 -39 -30 -46 -53 -9 -79 -35 -79 -79 0 -66 70 -104 113 -61 13
13 16 13 27 0 7 -8 18 -15 25 -15 17 0 28 31 15 44 -5 5 -10 47 -10 93 0 70
-3 86 -20 103 -19 19 -67 25 -112 13z m82 -162 c0 -32 -22 -56 -45 -47 -15 5
-21 56 -8 69 3 4 17 7 30 7 19 0 23 -5 23 -29z"/>
<path d="M2740 1765 l0 -125 30 0 30 0 0 125 0 125 -30 0 -30 0 0 -125z"/>
<path d="M3210 1782 c0 -93 3 -111 18 -125 23 -21 66 -22 86 -1 15 14 16 14
16 0 0 -10 9 -16 25 -16 l25 0 0 125 0 125 -25 0 c-25 0 -25 -1 -25 -88 0 -75
-3 -92 -19 -106 -33 -30 -41 -11 -41 95 l0 99 -30 0 -30 0 0 -108z"/>
</g>
</svg>
